<svg xmlns="http://www.w3.org/2000/svg" width="1024" height="1024" viewBox="-51.5 -51.5 1127.0 1127.0">
  <g fill="none" stroke="black" stroke-width="45" stroke-linecap="round" stroke-linejoin="round">
    <path d="M 170.794,140.786 C 135.332,174.595 113.437,198.747 97.974,218.568 C 87.729,233.105 67.246,267.462 45.287,311.549 C 36.953,331.211 29.907,350.741 23.795,370.5 C 17.549,394.946 9.321,438.81 6.854,458.631 C 4.479,487.975 4.271,527.221 7.614,571.222 C 14.89,615.502 19.573,635.08 25.406,654.642 C 40.215,694.052 58.596,733.567 78.105,768.034 C 91.084,787.797 105.109,807.164 133.403,841.441 C 162.272,870.942 191.852,896.21 225.976,921.189 C 245.281,933.667 265.194,945.288 304.475,964.654 C 348.65,983.424 392.995,997.779 437.27,1008.598 C 481.454,1015.909 520.752,1018.991 574.855,1018.452 C 614.197,1015.108 658.53,1007.611 698.022,997.41 C 727.299,987.613 757.077,975.877 786.565,962.459 C 821.046,944.653 850.492,927.532 880.273,908.237 C 905.037,890.408 930.134,870.074 954.579,847.911 C 978.79,823.064 994.556,803.665 1004.284,788.698 C 1011.671,773.744 1015.266,763.729 1017.792,753.752 C 1019.998,733.985 1019.315,719.126 1016.271,704.314 C 1012.682,694.406 1007.83,684.483 1001.568,674.602 C 993.839,664.964 984.938,656.137 975.078,648.399 C 965.253,642.458 955.319,638.011 945.4,634.781 C 925.812,631.025 896.271,629.177 812.679,627.154 C 797.834,625.284 787.883,622.796 767.89,614.739 C 752.904,605.502 738.73,593.078 730.393,583.398 C 723.689,573.502 718.326,563.372 714.383,553.468 C 711.66,543.575 709.481,528.826 709.166,514.163 C 710.052,504.439 713.526,489.807 717.487,480.058 C 726.215,465.074 733.787,455.191 742.634,445.686 C 752.271,436.981 771.896,422.533 821.187,392.956 C 841.362,378.939 861.318,360.945 877.851,341.034 C 887.172,326.019 894.346,310.831 899.335,296.265 C 902.783,281.414 904.84,266.552 905.537,246.765 C 904.198,227.075 901.555,212.301 895.949,192.711 C 889.874,177.822 882.165,163.008 869.41,143.556 C 853.743,124.016 840.366,109.762 826.004,96.963 C 805.646,82.073 786.13,70.019 761.765,57.073 C 736.947,45.745 712.366,36.069 687.747,28.01 C 658.25,20.058 628.834,13.671 599.394,9.1" data-line="nan"  stroke-width="45.0"/>
    <circle cx="495.19359670441673" cy="222.61492494865212" r="89.47861618349414" data-line="2.0"  stroke-width="45.0"/>
    <circle cx="258.26748798341134" cy="363.83050249920507" r="89.06360539479836" data-line="4.0"  stroke-width="45.0"/>
    <circle cx="253.15224024981103" cy="640.5827742842756" r="87.13960407099" data-line="6.0"  stroke-width="45.0"/>
    <path d="M 309.732,706.539 L 315.888,701.694" data-line="7.0"  stroke-width="45.0"/>
    <circle cx="491.015611606362" cy="781.1724401658237" r="88.17598688225225" data-line="9.0"  stroke-width="45.0"/>
    <path d="M 599.394,9.1 C 527.4876887758414,-0.509241119461614 475.6779568571296,5.646459977600448 404.612,21.909" data-line="10.0"  stroke-width="45.0"/>
    <path d="M 404.56129002886075,21.69024625682846 A 545.2999281241689,545.2999281241689 0 0,0 170.71812909678226,140.6983930409333" data-line="11.0"  stroke-width="45.0"/>
  </g>
</svg>