<svg xmlns="http://www.w3.org/2000/svg" width="1024" height="1024" viewBox="-51.5 -51.5 1127.0 1127.0">
  <g fill="none" stroke="black" stroke-width="45" stroke-linecap="round" stroke-linejoin="round">
    <path d="M 887.89,1018.164 C 942.41,1018.162 956.951,1016.811 966.578,1014.47 C 975.894,1010.978 986.595,1005.23 992.505,1000.9 C 1000.069,993.786 1005.367,987.408 1011.913,976.496 C 1015.435,967.863 1018.003,958.237 1019.492,947.434 L 1019.925,912.43" data-line="nan"  stroke-width="45.0"/>
    <path d="M 1019.891,84.668 C 1018.48,65.951 1013.568,50.01 1004.759,34.72 C 992.458,22.224 979.661,14.165 963.349,8.397 Q 950.662,6.473 921.867,6.042" data-line="nan"  stroke-width="45.0"/>
    <path d="M 86.192,6.176 C 73.579,6.586 63.826,8.062 46.797,13.551 C 38.696,17.882 30.566,23.717 19.757,34.819 C 14.278,43.064 10.296,51.259 5.702,67.377 Q 4.198,83.617 4.114,120.501" data-line="nan"  stroke-width="45.0"/>
    <path d="M 4.149,935.712 C 5.685,955.6 8.209,966.173 11.448,974.449 C 16.623,983.867 22.01,991.267 35.643,1003.814 C 42.055,1008.018 50.396,1012.162 64.813,1016.153 Q 79.964,1018.086 112.817,1018.229" data-line="nan"  stroke-width="45.0"/>
    <circle cx="511.96812833742126" cy="511.05905865863946" r="198.90565677328863" data-line="0.0"  stroke-width="45.0"/>
    <path d="M 1019.998,875.847 L 4.029,876.157" data-line="2.0"  stroke-width="45.0"/>
    <path d="M 879.369,1018.168 L 879.211,853.204" data-line="4.0"  stroke-width="45.0"/>
    <path d="M 145.063,1018.213 L 145.066,855.76" data-line="6.0"  stroke-width="45.0"/>
    <path d="M 1019.989,145.0 L 4.089,145.029" data-line="8.0"  stroke-width="45.0"/>
    <path d="M 879.211,853.204 L 879.596,6.036" data-line="9.0"  stroke-width="45.0"/>
    <path d="M 145.066,855.76 L 145.027,6.07" data-line="11.0"  stroke-width="45.0"/>
    <path d="M 1019.925,912.43 L 1019.891,84.668" data-line="12.0"  stroke-width="45.0"/>
    <path d="M 921.867,6.042 L 86.192,6.176" data-line="14.0"  stroke-width="45.0"/>
    <path d="M 4.114,120.501 L 4.149,935.712" data-line="16.0"  stroke-width="45.0"/>
    <path d="M 112.817,1018.229 L 887.89,1018.164" data-line="18.0"  stroke-width="45.0"/>
  </g>
</svg>