<svg xmlns="http://www.w3.org/2000/svg" width="1024" height="1024" viewBox="-51.5 -51.5 1127.0 1127.0">
  <g fill="none" stroke="black" stroke-width="45" stroke-linecap="round" stroke-linejoin="round">
    <path d="M 605.219,532.208 C 594.285,528.186 583.776,526.136 572.558,526.501 C 562.131,529.083 548.414,535.934 539.321,543.424 C 532.079,552.195 527.209,560.924 523.58,571.602 C 522.288,580.196 522.63,593.815 524.758,603.341 C 528.896,612.87 535.553,622.66 544.456,631.444 C 554.013,637.707 563.459,641.499 572.96,643.403 C 587.212,643.435 596.795,641.466 606.64,637.389 C 616.391,630.856 620.981,626.637 628.664,617.081 C 631.53,612.123 635.401,602.343 637.279,592.714 C 637.547,583.101 635.234,568.799 623.759,540.415" data-line="nan"  stroke-width="45.0"/>
    <path d="M 634.276,147.601 C 665.276,152.464 696.516,159.727 726.922,169.088 C 753.631,179.297 781.859,192.324 809.627,207.693 C 834.258,223.678 858.081,241.62 881.978,262.319 C 903.291,283.534 923.949,307.095 943.554,333.144 C 959.178,357.127 973.566,383.274 986.481,411.722 C 996.989,440.366 1006.227,472.745 1012.835,504.555 C 1017.374,537.825 1019.835,571.687 1019.534,600.218 C 1016.474,633.522 1011.511,664.337 1004.949,692.811 C 994.526,726.658 982.279,757.679 967.208,788.546 C 950.1,817.454 938.736,834.07 925.833,851.078 C 914.288,864.921 900.517,879.687 895.669,884.233 C 890.581,887.551 885.519,888.95 877.805,889.237" data-line="nan"  stroke-width="45.0"/>
    <path d="M 19.953,706.696 L 316.342,706.54" data-line="0.0"  stroke-width="45.0"/>
    <path d="M 143.395,814.57 L 312.897,814.527" data-line="1.0"  stroke-width="45.0"/>
    <path d="M 623.888,540.279 L 810.553,351.032" data-line="3.0"  stroke-width="45.0"/>
    <path d="M 605.219,532.208 L 623.658,540.18" data-line="4.0"  stroke-width="45.0"/>
    <path d="M 143.601,603.162 L 154.206,484.556" data-line="7.0"  stroke-width="45.0"/>
    <path d="M 143.601,603.162 L 256.101,603.214" data-line="8.0"  stroke-width="45.0"/>
    <path d="M 153.91984264585483,484.4923572063068 A 433.9934710651614,433.9934710651614 0 0,1 506.17186642647926,150.6310309441348" data-line="9.0"  stroke-width="45.0"/>
    <path d="M 506.126,150.356 L 634.276,147.601" data-line="10.0"  stroke-width="45.0"/>
    <path d="M 877.805,889.237 L 282.627,890.216" data-line="12.0"  stroke-width="45.0"/>
  </g>
</svg>