<svg xmlns="http://www.w3.org/2000/svg" width="1024" height="1024" viewBox="-51.5 -51.5 1127.0 1127.0">
  <g fill="none" stroke="black" stroke-width="45" stroke-linecap="round" stroke-linejoin="round">
    <path d="M 430.819,6.745 L 446.734,4.453" data-line="0"  stroke-width="45.0"/>
    <path d="M 446.734,4.453 L 593.596,6.617" data-line="1"  stroke-width="45.0"/>
    <path d="M 615.807,122.191 L 593.596,6.617" data-line="2"  stroke-width="45.0"/>
    <path d="M 615.807,122.191 L 617.634,126.366" data-line="3"  stroke-width="45.0"/>
    <path d="M 617.634,126.366 L 620.123,129.899" data-line="4"  stroke-width="45.0"/>
    <path d="M 620.123,129.899 L 622.726,132.283" data-line="5"  stroke-width="45.0"/>
    <path d="M 622.726,132.283 L 699.754,164.319" data-line="6"  stroke-width="45.0"/>
    <path d="M 699.754,164.319 L 702.554,164.504" data-line="7"  stroke-width="45.0"/>
    <path d="M 702.554,164.504 L 706.132,164.068" data-line="8"  stroke-width="45.0"/>
    <path d="M 706.132,164.068 L 710.52,162.681" data-line="9"  stroke-width="45.0"/>
    <path d="M 710.52,162.681 L 714.729,160.677" data-line="10"  stroke-width="45.0"/>
    <path d="M 714.729,160.677 L 809.727,99.948" data-line="11"  stroke-width="45.0"/>
    <path d="M 917.703,205.487 L 809.727,99.948" data-line="12"  stroke-width="45.0"/>
    <path d="M 917.703,205.487 L 924.288,215.756" data-line="13"  stroke-width="45.0"/>
    <path d="M 924.288,215.756 L 856.825,318.975" data-line="14"  stroke-width="45.0"/>
    <path d="M 890.067,396.08 L 856.825,318.975" data-line="15"  stroke-width="45.0"/>
    <path d="M 890.067,396.08 L 892.135,399.536" data-line="16"  stroke-width="45.0"/>
    <path d="M 892.135,399.536 L 895.268,402.926" data-line="17"  stroke-width="45.0"/>
    <path d="M 895.268,402.926 L 898.638,405.348" data-line="18"  stroke-width="45.0"/>
    <path d="M 898.638,405.348 L 902.558,407.187" data-line="19"  stroke-width="45.0"/>
    <path d="M 902.558,407.187 L 1017.214,429.037" data-line="20"  stroke-width="45.0"/>
    <path d="M 1017.392,594.4 L 1017.214,429.037" data-line="21"  stroke-width="45.0"/>
    <path d="M 893.016,621.729 L 857.05,707.035" data-line="22"  stroke-width="45.0"/>
    <path d="M 893.016,621.729 L 894.721,619.523" data-line="23"  stroke-width="45.0"/>
    <path d="M 894.721,619.523 L 896.841,617.52" data-line="24"  stroke-width="45.0"/>
    <path d="M 896.841,617.52 L 899.063,616.104" data-line="25"  stroke-width="45.0"/>
    <path d="M 899.063,616.104 L 901.714,615.046" data-line="26"  stroke-width="45.0"/>
    <path d="M 901.714,615.046 L 1017.392,594.4" data-line="27"  stroke-width="45.0"/>
    <path d="M 913.444,823.495 L 812.496,923.595" data-line="28"  stroke-width="45.0"/>
    <path d="M 913.444,823.495 L 915.48,820.797" data-line="29"  stroke-width="45.0"/>
    <path d="M 915.48,820.797 L 917.556,817.228" data-line="30"  stroke-width="45.0"/>
    <path d="M 917.556,817.228 L 919.067,813.569" data-line="31"  stroke-width="45.0"/>
    <path d="M 919.067,813.569 L 920.021,810.028" data-line="32"  stroke-width="45.0"/>
    <path d="M 920.021,810.028 L 920.194,806.812" data-line="33"  stroke-width="45.0"/>
    <path d="M 920.194,806.812 L 919.684,803.297" data-line="34"  stroke-width="45.0"/>
    <path d="M 919.684,803.297 L 918.664,799.602" data-line="35"  stroke-width="45.0"/>
    <path d="M 918.6639999865247,799.6020000046692 A 44.511576894936205,44.511576894936205 0 0,0 915.8999999866992,793.2650000070779" data-line="36"  stroke-width="45.0"/>
    <path d="M 915.9,793.265 L 857.05,707.035" data-line="37"  stroke-width="45.0"/>
    <path d="M 812.496,923.595 L 709.22,857.171" data-line="38"  stroke-width="45.0"/>
    <path d="M 709.22,857.171 L 619.356,891.143" data-line="39"  stroke-width="45.0"/>
    <path d="M 619.356,891.143 L 594.985,1014.13" data-line="40"  stroke-width="45.0"/>
    <path d="M 594.985,1014.13 L 430.342,1017.019" data-line="41"  stroke-width="45.0"/>
    <path d="M 430.342,1017.019 L 406.978,892.599" data-line="42"  stroke-width="45.0"/>
    <path d="M 406.978,892.599 L 321.238,858.12" data-line="43"  stroke-width="45.0"/>
    <path d="M 215.678,926.182 L 314.099,861.318" data-line="44"  stroke-width="45.0"/>
    <path d="M 314.099,861.318 L 321.238,858.12" data-line="45"  stroke-width="45.0"/>
    <path d="M 215.678,926.182 L 98.75,811.793" data-line="46"  stroke-width="45.0"/>
    <path d="M 121.042,615.659 L 10.107,596.098" data-line="47"  stroke-width="45.0"/>
    <path d="M 121.042,615.659 L 123.994,616.588" data-line="48"  stroke-width="45.0"/>
    <path d="M 123.994,616.588 L 126.92,618.27" data-line="49"  stroke-width="45.0"/>
    <path d="M 126.92,618.27 L 130.374,621.065" data-line="50"  stroke-width="45.0"/>
    <path d="M 130.374,621.065 L 133.321,624.527" data-line="51"  stroke-width="45.0"/>
    <path d="M 133.321,624.527 L 135.642,628.033" data-line="52"  stroke-width="45.0"/>
    <path d="M 135.642,628.033 L 163.697,698.489" data-line="53"  stroke-width="45.0"/>
    <path d="M 163.697,698.489 L 164.292,703.072" data-line="54"  stroke-width="45.0"/>
    <path d="M 164.292,703.072 L 163.739,707.802" data-line="55"  stroke-width="45.0"/>
    <path d="M 163.739,707.802 L 162.298,712.338" data-line="56"  stroke-width="45.0"/>
    <path d="M 162.298,712.338 L 98.75,811.793" data-line="57"  stroke-width="45.0"/>
    <path d="M 10.107,596.098 L 6.638,581.528" data-line="58"  stroke-width="45.0"/>
    <path d="M 6.638,581.528 L 5.695,442.201" data-line="59"  stroke-width="45.0"/>
    <path d="M 5.695,442.201 L 11.032,427.039" data-line="60"  stroke-width="45.0"/>
    <path d="M 122.555,407.355 L 11.032,427.039" data-line="61"  stroke-width="45.0"/>
    <path d="M 122.555,407.355 L 125.345,406.373" data-line="62"  stroke-width="45.0"/>
    <path d="M 125.345,406.373 L 128.8,404.339" data-line="63"  stroke-width="45.0"/>
    <path d="M 128.8,404.339 L 131.986,401.403" data-line="64"  stroke-width="45.0"/>
    <path d="M 131.986,401.403 L 134.734,397.757" data-line="65"  stroke-width="45.0"/>
    <path d="M 134.734,397.757 L 136.503,394.51" data-line="66"  stroke-width="45.0"/>
    <path d="M 136.503,394.51 L 167.736,316.104" data-line="67"  stroke-width="45.0"/>
    <path d="M 104.667,225.717 L 167.736,316.104" data-line="68"  stroke-width="45.0"/>
    <path d="M 104.667,225.717 L 103.881,222.615" data-line="69"  stroke-width="45.0"/>
    <path d="M 103.881,222.615 L 103.372,218.781" data-line="70"  stroke-width="45.0"/>
    <path d="M 103.372,218.781 L 103.622,214.275" data-line="71"  stroke-width="45.0"/>
    <path d="M 103.622,214.275 L 104.497,210.325" data-line="72"  stroke-width="45.0"/>
    <path d="M 104.497,210.325 L 106.094,206.7" data-line="73"  stroke-width="45.0"/>
    <path d="M 106.094,206.7 L 216.41,99.579" data-line="74"  stroke-width="45.0"/>
    <path d="M 318.826,167.806 L 216.41,99.579" data-line="75"  stroke-width="45.0"/>
    <path d="M 404.162,132.469 L 318.826,167.806" data-line="76"  stroke-width="45.0"/>
    <path d="M 430.819,6.745 L 404.162,132.469" data-line="77"  stroke-width="45.0"/>
    <circle cx="512.4546215400018" cy="512.9531840531271" r="222.64945073067872" data-line="124"  stroke-width="45.0"/>
  </g>
</svg>